<svg width="27" height="26" viewBox="0 0 27 26" fill="none" xmlns="http://www.w3.org/2000/svg">
<g clip-path="url(#clip0_1_57)">
<path d="M8.16838 25.5133C7.65576 25.1723 7.20144 24.7509 6.82288 24.2653C6.40646 23.7642 6.02064 23.2383 5.6675 22.6907C4.83882 21.4767 4.18894 20.1498 3.73782 18.7509C3.19588 17.1259 2.93344 15.5683 2.93344 14.0449C2.93344 12.3435 3.3015 10.8583 4.02138 9.61027C4.55501 8.63482 5.33959 7.81966 6.29394 7.24914C7.21882 6.67468 8.28151 6.36031 9.37007 6.33914C9.75113 6.33914 10.1614 6.39439 10.5969 6.50002C10.9098 6.58858 11.2908 6.72833 11.7564 6.90221C12.3487 7.13052 12.6745 7.27027 12.785 7.30439C13.1319 7.43114 13.4236 7.48639 13.6528 7.48639C13.8266 7.48639 14.072 7.43114 14.3507 7.34664C14.5075 7.29139 14.8033 7.19389 15.2266 7.01271C15.6458 6.85996 15.9757 6.72914 16.2381 6.63164C16.6403 6.51302 17.0295 6.40333 17.3764 6.34808C17.7877 6.28324 18.2051 6.26606 18.6204 6.29689C19.3399 6.34393 20.0487 6.49641 20.7239 6.74946C21.8281 7.19389 22.7211 7.88777 23.3857 8.87414C23.1048 9.04728 22.8411 9.24699 22.5984 9.47052C22.0699 9.93899 21.6198 10.489 21.2651 11.0996C20.8014 11.9341 20.561 12.8741 20.5671 13.8288C20.5842 15.0012 20.8848 16.0339 21.4771 16.9268C21.9126 17.5886 22.4785 18.1546 23.1403 18.59C23.4791 18.8183 23.7708 18.9751 24.0503 19.0808C23.9195 19.487 23.7797 19.8803 23.6148 20.2703C23.2407 21.1448 22.7874 21.9833 22.2604 22.7752C21.7908 23.4569 21.4227 23.9647 21.1432 24.3027C20.7077 24.8186 20.2884 25.2127 19.8651 25.4873C19.3996 25.7961 18.8495 25.961 18.2905 25.961C17.9119 25.9756 17.5334 25.9298 17.1693 25.8253C16.8564 25.7197 16.5469 25.6051 16.2422 25.4743C15.9254 25.3288 15.5988 25.2058 15.2648 25.1063C14.439 24.8942 13.5732 24.8928 12.7468 25.1022C12.408 25.1997 12.0822 25.3135 11.7604 25.4532C11.3079 25.6433 11.0073 25.7709 10.8334 25.8253C10.4864 25.9269 10.1265 25.9903 9.7625 26.0114C9.19944 26.0114 8.67456 25.8505 8.15457 25.5247L8.16838 25.5133ZM15.5946 5.51364C14.8585 5.88171 14.1557 6.03852 13.4578 5.98733C13.3481 5.28452 13.4578 4.56546 13.7494 3.77814C13.9978 3.11114 14.3647 2.49454 14.8325 1.95814C15.3265 1.39347 15.926 0.930637 16.5973 0.595582C17.3123 0.227519 17.9939 0.0284565 18.6456 -0.000793457C18.7301 0.735332 18.6456 1.45927 18.375 2.24171C18.1246 2.93337 17.7584 3.5774 17.2919 4.14621C16.8159 4.71165 16.2316 5.17628 15.5735 5.51283L15.5946 5.51364Z" fill="#C0C0C0"/>
</g>
<defs>
<clipPath id="clip0_1_57">
<rect width="26" height="26" fill="white" transform="translate(0.5)"/>
</clipPath>
</defs>
</svg>
