<svg width="24" height="25" viewBox="0 0 24 25" fill="none" xmlns="http://www.w3.org/2000/svg">
<path d="M14.4 3.5C15.3 3.5 16.05 3.95 16.5 4.85C16.65 5 16.8 5.45 16.95 5.75L17.1 6.05L17.25 6.2L17.4 6.35L17.55 6.5C19.8 6.5 21.6 8.3 21.6 10.55V16.1C21.6 18.35 19.8 20.15 17.55 20.15H7.05C4.8 20.15 3 18.35 3 16.1V10.7C3 8.45 4.8 6.65 7.05 6.65C7.05 6.65 7.2 6.65 7.2 6.5V6.35C7.5 5.9 7.8 5.15 8.1 4.85C8.55 3.95 9.3 3.5 10.2 3.5H14.4Z" stroke="#4A66FF"/>
<path d="M18.15 10.8503C18.6471 10.8503 19.05 10.4473 19.05 9.95029C19.05 9.45324 18.6471 9.05029 18.15 9.05029C17.6529 9.05029 17.25 9.45324 17.25 9.95029C17.25 10.4473 17.6529 10.8503 18.15 10.8503Z" fill="#4A66FF"/>
<path d="M12.2999 15.8C14.0396 15.8 15.4499 14.3897 15.4499 12.65C15.4499 10.9103 14.0396 9.5 12.2999 9.5C10.5602 9.5 9.1499 10.9103 9.1499 12.65C9.1499 14.3897 10.5602 15.8 12.2999 15.8Z" stroke="#4A66FF"/>
</svg>
