<svg width="16" height="16" viewBox="0 0 16 16" fill="none" xmlns="http://www.w3.org/2000/svg">
<path d="M9.28331 1.66937C9.54468 1.66935 9.80151 1.73762 10.0284 1.86742C10.2552 1.99721 10.4442 2.18404 10.5766 2.40937L11.1193 3.33403H12.5C13.0745 3.33403 13.6255 3.56222 14.0318 3.9684C14.4381 4.37459 14.6665 4.92551 14.6666 5.50003V11.8334C14.6666 12.1179 14.6106 12.3996 14.5017 12.6625C14.3928 12.9254 14.2332 13.1642 14.032 13.3654C13.8309 13.5666 13.592 13.7262 13.3291 13.8351C13.0663 13.944 12.7845 14 12.5 14H3.49998C2.92534 14 2.37424 13.7718 1.96791 13.3654C1.56159 12.9591 1.33331 12.408 1.33331 11.8334V5.50003C1.33331 4.9254 1.56159 4.3743 1.96791 3.96797C2.37424 3.56164 2.92534 3.33337 3.49998 3.33337H4.88665L5.46998 2.38403C5.6041 2.16551 5.79201 1.98502 6.01574 1.85979C6.23948 1.73456 6.49158 1.66877 6.74798 1.6687L9.28331 1.66937ZM9.28331 2.66937H6.74798C6.67502 2.66943 6.60296 2.68545 6.53686 2.71632C6.47075 2.74718 6.4122 2.79214 6.36531 2.84803L6.32198 2.90803L5.59331 4.0947C5.54863 4.16758 5.48601 4.22779 5.41143 4.26957C5.33685 4.31136 5.2528 4.33332 5.16731 4.33337H3.50065C3.34738 4.33328 3.1956 4.36339 3.05398 4.42198C2.91235 4.48058 2.78366 4.5665 2.67526 4.67484C2.56685 4.78318 2.48086 4.91183 2.42218 5.05342C2.36351 5.19501 2.33331 5.34677 2.33331 5.50003V11.8334C2.33331 12.4774 2.85598 13 3.49998 13H12.5C12.8094 13 13.1061 12.8771 13.3249 12.6583C13.5437 12.4395 13.6666 12.1428 13.6666 11.8334V5.50003C13.6666 5.19062 13.5437 4.89387 13.3249 4.67508C13.1061 4.45628 12.8094 4.33337 12.5 4.33337H10.8333C10.7462 4.33341 10.6605 4.31068 10.5848 4.26741C10.5092 4.22414 10.4461 4.16184 10.402 4.0867L9.71398 2.91537C9.66988 2.84032 9.60695 2.77809 9.53141 2.73483C9.45588 2.69157 9.37036 2.66877 9.28331 2.6687M7.99998 5.33337C8.79563 5.33337 9.55869 5.64944 10.1213 6.21205C10.6839 6.77466 11 7.53772 11 8.33337C11 9.12902 10.6839 9.89208 10.1213 10.4547C9.55869 11.0173 8.79563 11.3334 7.99998 11.3334C7.20433 11.3334 6.44127 11.0173 5.87866 10.4547C5.31605 9.89208 4.99998 9.12902 4.99998 8.33337C4.99998 7.53772 5.31605 6.77466 5.87866 6.21205C6.44127 5.64944 7.20433 5.33337 7.99998 5.33337ZM7.99998 6.33337C7.73734 6.33337 7.47726 6.3851 7.23461 6.48561C6.99196 6.58612 6.77148 6.73344 6.58577 6.91915C6.40005 7.10487 6.25273 7.32535 6.15222 7.568C6.05171 7.81065 5.99998 8.07072 5.99998 8.33337C5.99998 8.59601 6.05171 8.85608 6.15222 9.09873C6.25273 9.34139 6.40005 9.56186 6.58577 9.74758C6.77148 9.9333 6.99196 10.0806 7.23461 10.1811C7.47726 10.2816 7.73734 10.3334 7.99998 10.3334C8.53041 10.3334 9.03912 10.1227 9.41419 9.74758C9.78927 9.37251 9.99998 8.8638 9.99998 8.33337C9.99998 7.80293 9.78927 7.29423 9.41419 6.91915C9.03912 6.54408 8.53041 6.33337 7.99998 6.33337Z" fill="#3645F5"/>
</svg>
