<svg width="25" height="24" viewBox="0 0 25 24" fill="none" xmlns="http://www.w3.org/2000/svg">
<path d="M8.19562 11.0557C8.84021 11.0559 9.36359 11.5799 9.36359 12.2227C9.36341 12.8671 8.8401 13.3904 8.19562 13.3906C7.55096 13.3906 7.02685 12.8673 7.02667 12.2227C7.02667 11.5798 7.55086 11.0557 8.19562 11.0557ZM12.7386 11.0557C13.3831 11.0559 13.9066 11.58 13.9066 12.2227C13.9064 12.8671 13.383 13.3904 12.7386 13.3906C12.0939 13.3906 11.5698 12.8673 11.5696 12.2227C11.5696 11.5798 12.0938 11.0557 12.7386 11.0557ZM17.2806 11.0557C17.9253 11.0557 18.4495 11.5798 18.4495 12.2227C18.4493 12.8673 17.9252 13.3906 17.2806 13.3906C16.6361 13.3904 16.1128 12.8671 16.1126 12.2227C16.1126 11.58 16.636 11.0559 17.2806 11.0557Z" fill="#99A6BB"/>
<path fill-rule="evenodd" clip-rule="evenodd" d="M12.52 2C6.71 2 2.5 6.74612 2.5 12.015C2.5 13.6975 2.99 15.4291 3.85 17.0115C4.01 17.2729 4.03 17.6024 3.92 17.9139L3.25 20.1572C3.1 20.698 3.56 21.0976 4.07 20.9374L6.09 20.3375C6.64 20.1572 7.07 20.3866 7.58 20.698C9.04 21.5583 10.86 22 12.5 22C17.46 22 22.5 18.1642 22.5 11.985C22.5 6.65598 18.2 2 12.52 2Z" stroke="#99A6BB" stroke-width="1.5" stroke-linecap="round" stroke-linejoin="round"/>
</svg>
