<svg width="21" height="15" viewBox="0 0 21 15" fill="none" xmlns="http://www.w3.org/2000/svg">
<g clip-path="url(#clip0_23_715)">
<path d="M9.21686 13.5953L8.91051 15.6784C8.84924 16.2298 8.3591 16.5974 7.80768 16.5974H3.70269C3.15127 16.5974 2.72239 16.1686 2.59986 15.6784L1.68083 8.93887C1.61956 8.26492 2.10971 7.7135 2.78366 7.7135H7.62387" stroke="#DDEAFF" stroke-width="0.519231" stroke-miterlimit="10"/>
<path d="M2.72241 7.65218C2.72241 5.99793 4.07032 4.65002 5.72457 4.65002C7.37882 4.65002 8.72672 5.99793 8.72672 7.65218" stroke="#DDEAFF" stroke-width="0.519231" stroke-miterlimit="10"/>
<path d="M11.7289 -2.94727L13.5056 13.3502" stroke="#DDEAFF" stroke-width="0.519231" stroke-miterlimit="10"/>
<path d="M9.21684 13.5952H16.5078C16.7529 13.5952 16.9367 13.7178 16.9979 13.9016L17.8557 15.8621C18.0395 16.2298 17.7332 16.6586 17.3656 16.6586H8.78796L9.21684 13.5952Z" stroke="#DDEAFF" stroke-width="0.519231" stroke-miterlimit="10"/>
<path d="M9.09431 13.5953H7.62386C7.07245 13.5953 6.70483 13.1664 6.70483 12.6762V8.63253C6.70483 8.08111 7.13371 7.7135 7.62386 7.7135H9.09431C9.64572 7.7135 10.0133 8.14238 10.0133 8.63253V12.6762C10.0133 13.2277 9.58445 13.5953 9.09431 13.5953Z" stroke="#DDEAFF" stroke-width="0.519231" stroke-miterlimit="10"/>
</g>
<defs>
<clipPath id="clip0_23_715">
<rect width="20.7692" height="15" fill="white"/>
</clipPath>
</defs>
</svg>
