<svg width="16" height="17" viewBox="0 0 16 17" fill="none" xmlns="http://www.w3.org/2000/svg">
<path d="M3.035 4.79994C3.435 3.06994 6.04 3.06994 6.435 4.79994C6.67 5.81494 6.025 6.67494 5.465 7.20994C5.055 7.59994 4.41 7.59494 4 7.20994C3.445 6.67494 2.8 5.81494 3.035 4.79994Z" stroke="#7594FF" stroke-opacity="0.4" stroke-width="1.125"/>
<path d="M9.535 10.7999C9.935 9.06994 12.555 9.06994 12.955 10.7999C13.19 11.8149 12.545 12.6749 11.98 13.2099C11.57 13.5999 10.92 13.5949 10.51 13.2099C9.945 12.6749 9.3 11.8149 9.535 10.7999Z" stroke="#7594FF" stroke-opacity="0.4" stroke-width="1.125"/>
<path d="M8 5H9.34C10.265 5 10.695 6.145 10 6.755L6.005 10.25C5.31 10.855 5.74 12 6.66 12H8" stroke="#7594FF" stroke-opacity="0.4" stroke-width="1.125" stroke-linecap="round" stroke-linejoin="round"/>
<path d="M4.74311 5.25H4.74889" stroke="#7594FF" stroke-opacity="0.4" stroke-width="1.5" stroke-linecap="round" stroke-linejoin="round"/>
<path d="M11.2431 11.25H11.2489" stroke="#7594FF" stroke-opacity="0.4" stroke-width="1.5" stroke-linecap="round" stroke-linejoin="round"/>
</svg>
