<svg width="17" height="17" viewBox="0 0 17 17" fill="none" xmlns="http://www.w3.org/2000/svg">
<path d="M3.15682 4.39955C3.55682 2.66955 6.16182 2.66955 6.55682 4.39955C6.79182 5.41455 6.14682 6.27455 5.58682 6.80955C5.17682 7.19955 4.53182 7.19455 4.12182 6.80955C3.56682 6.27455 2.92182 5.41455 3.15682 4.39955Z" stroke="#ECF4FF" stroke-width="1.125"/>
<path d="M9.65682 10.3996C10.0568 8.66955 12.6768 8.66955 13.0768 10.3996C13.3118 11.4146 12.6668 12.2746 12.1018 12.8096C11.6918 13.1996 11.0418 13.1946 10.6318 12.8096C10.0668 12.2746 9.42182 11.4146 9.65682 10.3996Z" stroke="#ECF4FF" stroke-width="1.125"/>
<path d="M8.12183 4.59961H9.46183C10.3868 4.59961 10.8168 5.74461 10.1218 6.35461L6.12683 9.84961C5.43183 10.4546 5.86183 11.5996 6.78183 11.5996H8.12183" stroke="#ECF4FF" stroke-width="1.125" stroke-linecap="round" stroke-linejoin="round"/>
<path d="M4.86493 4.84961H4.87071" stroke="#ECF4FF" stroke-width="1.5" stroke-linecap="round" stroke-linejoin="round"/>
<path d="M11.3649 10.8496H11.3707" stroke="#ECF4FF" stroke-width="1.5" stroke-linecap="round" stroke-linejoin="round"/>
</svg>
