<svg width="20" height="21" viewBox="0 0 20 21" fill="none" xmlns="http://www.w3.org/2000/svg">
<g clip-path="url(#clip0_25_1968)">
<path d="M16.8075 10.4978C16.8151 9.90717 16.4952 9.36433 15.9756 9.0794L3.86816 2.4272C3.32586 2.12071 2.68659 2.15837 2.17559 2.5073C1.65521 2.86212 1.38886 3.70677 1.53433 4.31682L2.66461 9.05228C2.78065 9.53787 3.21524 9.87978 3.71522 9.87764L10.453 9.85674C10.798 9.84982 11.0779 10.1296 11.0709 10.4747C11.0699 10.8138 10.7942 11.0895 10.4492 11.0965L3.70496 11.1121C3.20498 11.1131 2.76826 11.4565 2.64921 11.9428L1.47896 16.6971C1.33687 17.259 1.49887 17.8198 1.89528 18.2163C1.94192 18.2629 1.99438 18.3154 2.04689 18.3561C2.56025 18.7522 3.23258 18.8027 3.80661 18.4969L15.9552 11.9097C16.4765 11.6333 16.7998 11.0885 16.8075 10.4978Z" fill="#4A66FF"/>
</g>
<defs>
<clipPath id="clip0_25_1968">
<rect width="20" height="20" fill="white" transform="translate(0 0.5)"/>
</clipPath>
</defs>
</svg>
