<svg width="16" height="15" viewBox="0 0 16 15" fill="none" xmlns="http://www.w3.org/2000/svg">
<path d="M2.65565 8.08287L1.84978 6.67259C1.64831 6.35024 1.76919 5.90701 2.09154 5.74583C2.41389 5.54437 2.81683 5.66525 3.01829 5.9876L4.18681 8.04258" stroke="#C2D7FF" stroke-width="0.28125" stroke-miterlimit="10"/>
<path d="M7.7326 7.76057C7.7326 6.59205 8.69965 5.625 9.86817 5.625C11.0367 5.625 12.0037 6.59205 12.0037 7.76057" stroke="#C2D7FF" stroke-width="0.28125" stroke-miterlimit="10"/>
<path d="M9.86816 8.0426V13.4823" stroke="#C2D7FF" stroke-width="0.28125" stroke-miterlimit="10"/>
<path d="M12.0844 8.0426V13.4823" stroke="#C2D7FF" stroke-width="0.805874" stroke-miterlimit="10"/>
<path d="M14.2602 10.7827H8.53851" stroke="#C2D7FF" stroke-width="0.28125" stroke-miterlimit="10"/>
<path d="M7.57144 8.0426H14.5825L13.8975 13.4823H6.76556" stroke="#C2D7FF" stroke-width="0.28125" stroke-miterlimit="10"/>
<path d="M5.55681 12.4749H4.67034C2.85713 12.4749 1.40656 11.0243 1.40656 9.21111V8.08289H8.8206V9.2514C8.8206 11.0243 7.37002 12.4749 5.55681 12.4749Z" stroke="#C2D7FF" stroke-width="0.375" stroke-miterlimit="10"/>
<path d="M7.20879 12.072V13.1197C7.20879 13.3614 7.00733 13.5629 6.76556 13.5629H3.46148C3.21972 13.5629 3.01825 13.3614 3.01825 13.1197V12.072" stroke="#C2D7FF" stroke-width="0.28125" stroke-miterlimit="10"/>
</svg>
