<svg width="16" height="15" viewBox="0 0 16 15" fill="none" xmlns="http://www.w3.org/2000/svg">
<path d="M12.4999 0C14.1568 0 15.4999 1.34314 15.4999 3V9C15.4999 10.6569 14.1568 12 12.4999 12H4.99994C4.39891 11.9886 3.81836 12.2184 3.38763 12.6377L1.13763 14.8877C1.06888 14.9591 0.974029 14.9994 0.874939 15C0.667832 15 0.499939 14.8321 0.499939 14.625V3C0.499964 1.34316 1.8431 2.52354e-05 3.49994 0H12.4999ZM4.62494 5.25C4.41789 5.25007 4.24994 5.41793 4.24994 5.625V6.375C4.25006 6.58196 4.41796 6.74993 4.62494 6.75H5.37494C5.58197 6.75 5.74982 6.582 5.74994 6.375V5.625C5.74994 5.41789 5.58205 5.25 5.37494 5.25H4.62494ZM7.62494 5.25C7.41792 5.2501 7.24994 5.41795 7.24994 5.625V6.375C7.25006 6.58194 7.41799 6.7499 7.62494 6.75H8.37494C8.58197 6.75 8.74981 6.582 8.74994 6.375V5.625C8.74994 5.41789 8.58205 5.25 8.37494 5.25H7.62494ZM10.6249 5.25C10.4179 5.25014 10.2499 5.41797 10.2499 5.625V6.375C10.2501 6.58192 10.418 6.74986 10.6249 6.75H11.3749C11.582 6.75 11.7498 6.582 11.7499 6.375V5.625C11.7499 5.41789 11.582 5.25 11.3749 5.25H10.6249Z" fill="#4A66FF"/>
</svg>
