<svg width="27" height="26" viewBox="0 0 27 26" fill="none" xmlns="http://www.w3.org/2000/svg">
<path d="M6.67014 15.4656L5.84739 18.537L2.84026 18.6006C1.94158 16.9338 1.43182 15.0266 1.43182 13C1.43182 11.0403 1.90843 9.1922 2.75324 7.56494H2.75389L5.43108 8.05576L6.60385 10.7169C6.35839 11.4325 6.2246 12.2007 6.2246 13C6.2247 13.8675 6.38184 14.6987 6.67014 15.4656Z" fill="#C0C0C0"/>
<path d="M24.8617 10.7922C24.9974 11.5071 25.0682 12.2454 25.0682 13C25.0682 13.8461 24.9792 14.6714 24.8098 15.4675C24.2345 18.1766 22.7312 20.5422 20.6487 22.2162L20.6481 22.2156L17.276 22.0435L16.7988 19.0643C18.1806 18.2539 19.2605 16.9857 19.8293 15.4675H13.5098V10.7922H19.9215H24.8617Z" fill="#C0C0C0"/>
<path d="M20.6481 22.2156L20.6487 22.2163C18.6234 23.8442 16.0507 24.8182 13.25 24.8182C8.74938 24.8182 4.8364 22.3026 2.84029 18.6007L6.67016 15.4656C7.6682 18.1293 10.2377 20.0254 13.25 20.0254C14.5448 20.0254 15.7578 19.6754 16.7987 19.0643L20.6481 22.2156Z" fill="#C0C0C0"/>
<path d="M20.7936 3.90259L16.965 7.03699C15.8877 6.36364 14.6143 5.97465 13.2501 5.97465C10.1695 5.97465 7.55199 7.95775 6.60395 10.7169L2.75394 7.56493H2.7533C4.72019 3.77273 8.68252 1.18182 13.2501 1.18182C16.1176 1.18182 18.7468 2.20327 20.7936 3.90259Z" fill="#C0C0C0"/>
</svg>
