<svg width="25" height="24" viewBox="0 0 25 24" fill="none" xmlns="http://www.w3.org/2000/svg">
<path d="M12.3998 21L16.7578 10H17.7808L22.1388 21H21.0578L19.8678 17.95H14.6698L13.4808 21H12.3998ZM4.51977 18.116L3.81177 17.408L8.70777 12.492C8.1371 11.9087 7.56943 11.1907 7.00477 10.338C6.4401 9.48535 6.02177 8.70602 5.74977 8.00002H6.82977C7.07377 8.56002 7.44277 9.20335 7.93677 9.93002C8.4301 10.6574 8.9231 11.2757 9.41577 11.785C10.2858 10.901 11.0584 9.93135 11.7338 8.87602C12.4084 7.82002 12.8571 6.86135 13.0798 6.00002H2.88477V5.00002H8.99977V3.77002H9.99977V5.00002H16.1158V6.00002H14.1188C13.8201 7.04669 13.3111 8.16135 12.5918 9.34402C11.8724 10.5274 11.0494 11.5807 10.1228 12.504L12.6578 15.108L12.2728 16.138L9.41577 13.206L4.51977 18.116ZM15.0078 17.046H19.5308L17.2688 11.235L15.0078 17.046Z" fill="white"/>
</svg>
