<svg width="25" height="25" viewBox="0 0 25 25" fill="none" xmlns="http://www.w3.org/2000/svg">
<path fill-rule="evenodd" clip-rule="evenodd" d="M4.21619 10.8178C4.21619 6.21789 8.06007 2.5 12.7096 2.5C17.3723 2.5 21.2162 6.21789 21.2162 10.8178C21.2162 13.1357 20.3732 15.2876 18.9857 17.1116C17.455 19.1235 15.5683 20.8765 13.4447 22.2524C12.9587 22.5704 12.5201 22.5944 11.9866 22.2524C9.85092 20.8765 7.96427 19.1235 6.44669 17.1116C5.05817 15.2876 4.21619 13.1357 4.21619 10.8178ZM9.91042 11.0768C9.91042 12.6177 11.1678 13.8297 12.7096 13.8297C14.2524 13.8297 15.522 12.6177 15.522 11.0768C15.522 9.5478 14.2524 8.27683 12.7096 8.27683C11.1678 8.27683 9.91042 9.5478 9.91042 11.0768Z" fill="#386DF3"/>
</svg>
