<svg width="16" height="25" viewBox="0 0 16 25" fill="none" xmlns="http://www.w3.org/2000/svg">
<path d="M7.25009 11C7.25009 11.1989 7.32911 11.3897 7.46976 11.5303C7.61041 11.671 7.80118 11.75 8.00009 11.75C8.199 11.75 8.38977 11.671 8.53042 11.5303C8.67107 11.3897 8.75009 11.1989 8.75009 11C8.75009 10.8011 8.67107 10.6103 8.53042 10.4697C8.38977 10.329 8.199 10.25 8.00009 10.25C7.80118 10.25 7.61041 10.329 7.46976 10.4697C7.32911 10.6103 7.25009 10.8011 7.25009 11ZM10.3751 11C10.3751 11.1989 10.4541 11.3897 10.5948 11.5303C10.7354 11.671 10.9262 11.75 11.1251 11.75C11.324 11.75 11.5148 11.671 11.6554 11.5303C11.7961 11.3897 11.8751 11.1989 11.8751 11C11.8751 10.8011 11.7961 10.6103 11.6554 10.4697C11.5148 10.329 11.324 10.25 11.1251 10.25C10.9262 10.25 10.7354 10.329 10.5948 10.4697C10.4541 10.6103 10.3751 10.8011 10.3751 11ZM4.12509 11C4.12509 11.1989 4.20411 11.3897 4.34476 11.5303C4.48541 11.671 4.67618 11.75 4.87509 11.75C5.074 11.75 5.26477 11.671 5.40542 11.5303C5.54607 11.3897 5.62509 11.1989 5.62509 11C5.62509 10.8011 5.54607 10.6103 5.40542 10.4697C5.26477 10.329 5.074 10.25 4.87509 10.25C4.67618 10.25 4.48541 10.329 4.34476 10.4697C4.20411 10.6103 4.12509 10.8011 4.12509 11ZM14.4563 8.2875C14.1032 7.44844 13.597 6.69531 12.9517 6.04844C12.3108 5.40532 11.5501 4.89411 10.7126 4.54375C9.85321 4.18281 8.94071 4 8.00009 4H7.96884C7.02196 4.00469 6.10478 4.19219 5.24228 4.56094C4.41191 4.91489 3.65833 5.42701 3.02353 6.06875C2.38446 6.71406 1.8829 7.46406 1.53603 8.3C1.17665 9.16563 0.995401 10.0859 1.00009 11.0328C1.00539 12.1179 1.26211 13.187 1.75009 14.1562V16.5312C1.75009 16.7219 1.82581 16.9047 1.96061 17.0395C2.0954 17.1743 2.27821 17.25 2.46884 17.25H4.8454C5.81461 17.738 6.88373 17.9947 7.96884 18H8.00165C8.93759 18 9.8454 17.8188 10.7001 17.4641C11.5334 17.1179 12.2913 16.6126 12.9313 15.9766C13.5767 15.3375 14.0845 14.5906 14.4392 13.7578C14.8079 12.8953 14.9954 11.9781 15.0001 11.0312C15.0048 10.0797 14.8204 9.15625 14.4563 8.2875ZM12.0954 15.1313C11.0001 16.2156 9.54696 16.8125 8.00009 16.8125H7.97353C7.03134 16.8078 6.0954 16.5734 5.26884 16.1328L5.13759 16.0625H2.93759V13.8625L2.86728 13.7312C2.42665 12.9047 2.19228 11.9688 2.18759 11.0266C2.18134 9.46875 2.77665 8.00625 3.86884 6.90469C4.95946 5.80312 6.41728 5.19375 7.97509 5.1875H8.00165C8.7829 5.1875 9.54071 5.33906 10.2548 5.63906C10.9517 5.93125 11.5767 6.35156 12.1142 6.88906C12.6501 7.425 13.072 8.05156 13.3642 8.74844C13.6673 9.47031 13.8188 10.2359 13.8157 11.0266C13.8063 12.5828 13.1954 14.0406 12.0954 15.1313Z" fill="#C2D7FF" fill-opacity="0.6"/>
</svg>
