<svg width="167" height="150" viewBox="0 0 167 150" fill="none" xmlns="http://www.w3.org/2000/svg">
<path d="M62.979 148.833C54.0679 147.356 45.8068 144.458 38.1957 140.142C30.5846 135.825 23.9734 130.408 18.3623 123.892C12.7512 117.375 8.36789 109.939 5.21234 101.583C2.05678 93.2333 0.479004 84.3722 0.479004 75C0.479004 64.5389 2.42623 54.7472 6.32067 45.625C10.2151 36.5028 15.5373 28.5639 22.2873 21.8083C29.0373 15.0528 36.9762 9.73057 46.104 5.84168C55.2318 1.95279 65.0235 0.00556741 75.479 1.1854e-05C85.9346 -0.0055437 95.7262 1.94168 104.854 5.84168C113.982 9.74168 121.921 15.0639 128.671 21.8083C135.421 28.5639 140.743 36.5028 144.637 45.625C148.532 54.7472 150.479 64.5389 150.479 75V77.3583C149.296 76.5806 147.915 75.8611 146.337 75.2C144.76 74.5444 143.346 73.9444 142.096 73.4C141.629 55.3667 134.962 40.0139 122.096 27.3417C109.229 14.6695 93.6901 8.33334 75.479 8.33334C66.6346 8.33334 58.5068 9.90557 51.0957 13.05C43.6846 16.1889 37.1318 20.1945 31.4373 25.0667L83.7707 77.3917C82.4096 78.0695 81.129 78.7639 79.929 79.475C78.729 80.1861 77.5346 80.9472 76.3457 81.7583L25.5457 30.9667C20.6734 36.3389 16.6679 42.8889 13.529 50.6167C10.3846 58.35 8.81234 66.4778 8.81234 75C8.81234 89.5 12.929 102.389 21.1623 113.667C29.3957 124.944 39.9484 132.936 52.8207 137.642C54.1429 139.503 55.7457 141.458 57.629 143.508C59.5123 145.558 61.2957 147.333 62.979 148.833ZM117.146 141.667C125.34 141.667 132.946 139.792 139.962 136.042C146.979 132.292 152.568 127.222 156.729 120.833C152.562 114.444 146.971 109.375 139.954 105.625C132.937 101.875 125.335 100 117.146 100C108.957 100 101.351 101.875 94.329 105.625C87.3068 109.375 81.7179 114.444 77.5623 120.833C81.729 127.222 87.3207 132.292 94.3373 136.042C101.354 139.792 108.957 141.667 117.146 141.667ZM117.146 150C106.373 150 96.6012 147.294 87.829 141.883C79.0568 136.472 72.4846 129.456 68.1123 120.833C72.479 112.211 79.0512 105.194 87.829 99.7833C96.6068 94.3722 106.379 91.6667 117.146 91.6667C127.912 91.6667 137.685 94.3722 146.462 99.7833C155.24 105.194 161.815 112.211 166.187 120.833C161.815 129.456 155.24 136.472 146.462 141.883C137.685 147.294 127.912 150 117.146 150ZM117.146 131.733C114.207 131.733 111.657 130.65 109.496 128.483C107.335 126.317 106.251 123.767 106.246 120.833C106.246 117.789 107.329 115.211 109.496 113.1C111.662 110.989 114.212 109.933 117.146 109.933C120.19 109.933 122.768 110.989 124.879 113.1C126.99 115.211 128.046 117.789 128.046 120.833C128.046 123.772 126.99 126.322 124.879 128.483C122.768 130.65 120.19 131.733 117.146 131.733Z" fill="#454A70"/>
</svg>