<svg width="25" height="24" viewBox="0 0 25 24" fill="none" xmlns="http://www.w3.org/2000/svg">
<path d="M22.5989 12.6C22.5989 12.3239 22.3751 12.1 22.0989 12.1C21.8228 12.1 21.5989 12.3239 21.5989 12.6H22.5989ZM21.2834 16.478L20.8261 16.2758C20.7883 16.3615 20.7752 16.456 20.7885 16.5487L21.2834 16.478ZM17.1978 20.9734L17.3191 20.4883C17.1952 20.4574 17.0641 20.475 16.9527 20.5376L17.1978 20.9734ZM22.1007 22.1991L21.9795 22.6842C22.141 22.7246 22.312 22.6819 22.4356 22.5704C22.5592 22.4589 22.6193 22.2932 22.5957 22.1284L22.1007 22.1991ZM10.7921 3.65976C11.0634 3.6083 11.2416 3.34664 11.1902 3.07534C11.1387 2.80403 10.877 2.62582 10.6057 2.67728L10.7921 3.65976ZM22.0989 12.6H21.5989C21.5989 13.9091 21.3228 15.1524 20.8261 16.2758L21.2834 16.478L21.7407 16.6802C22.2926 15.4318 22.5989 14.051 22.5989 12.6H22.0989ZM12.4989 22.2001V21.7001C7.47313 21.7001 3.39893 17.6258 3.39893 12.6H2.89893H2.39893C2.39893 18.1781 6.92085 22.7001 12.4989 22.7001V22.2001ZM17.1978 20.9734L16.9527 20.5376C15.6367 21.2777 14.1179 21.7001 12.4989 21.7001V22.2001V22.7001C14.294 22.7001 15.9811 22.2313 17.4429 21.4092L17.1978 20.9734ZM22.1007 22.1991L22.222 21.7141L17.3191 20.4883L17.1978 20.9734L17.0766 21.4585L21.9795 22.6842L22.1007 22.1991ZM21.2834 16.478L20.7885 16.5487L21.6058 22.2699L22.1007 22.1991L22.5957 22.1284L21.7784 16.4073L21.2834 16.478ZM2.89893 12.6H3.39893C3.39893 8.158 6.58217 4.45836 10.7921 3.65976L10.6989 3.16852L10.6057 2.67728C5.93258 3.56375 2.39893 7.6687 2.39893 12.6H2.89893ZM22.0989 5.40005H21.5989C21.5989 7.11213 20.211 8.50005 18.4989 8.50005V9.00005V9.50005C20.7633 9.50005 22.5989 7.66442 22.5989 5.40005H22.0989ZM18.4989 9.00005V8.50005C16.7868 8.50005 15.3989 7.11213 15.3989 5.40005H14.8989H14.3989C14.3989 7.66442 16.2346 9.50005 18.4989 9.50005V9.00005ZM14.8989 5.40005H15.3989C15.3989 3.68797 16.7868 2.30005 18.4989 2.30005V1.80005V1.30005C16.2346 1.30005 14.3989 3.13568 14.3989 5.40005H14.8989ZM18.4989 1.80005V2.30005C20.211 2.30005 21.5989 3.68797 21.5989 5.40005H22.0989H22.5989C22.5989 3.13568 20.7633 1.30005 18.4989 1.30005V1.80005Z" fill="white"/>
</svg>
