<svg width="16" height="15" viewBox="0 0 16 15" fill="none" xmlns="http://www.w3.org/2000/svg">
<path d="M10.9009 7.23209H5.16876C5.16876 5.62495 6.45448 4.33923 8.06162 4.33923C9.61519 4.33923 10.9009 5.62495 10.9009 7.23209Z" stroke="#C2D7FF" stroke-width="0.234375" stroke-miterlimit="10"/>
<path d="M6.02593 10.0714C6.35138 10.0714 6.61522 9.80756 6.61522 9.48211C6.61522 9.15665 6.35138 8.89282 6.02593 8.89282C5.70048 8.89282 5.43665 9.15665 5.43665 9.48211C5.43665 9.80756 5.70048 10.0714 6.02593 10.0714Z" fill="#C2D7FF"/>
<path d="M9.77593 12.1607C10.1014 12.1607 10.3652 11.8969 10.3652 11.5715C10.3652 11.246 10.1014 10.9822 9.77593 10.9822C9.45048 10.9822 9.18665 11.246 9.18665 11.5715C9.18665 11.8969 9.45048 12.1607 9.77593 12.1607Z" fill="#C2D7FF"/>
<path d="M10.2045 9.91073C10.4412 9.91073 10.6331 9.71885 10.6331 9.48216C10.6331 9.24547 10.4412 9.05359 10.2045 9.05359C9.96782 9.05359 9.77594 9.24547 9.77594 9.48216C9.77594 9.71885 9.96782 9.91073 10.2045 9.91073Z" fill="#C2D7FF"/>
<path d="M6.02592 12C6.26262 12 6.45449 11.8081 6.45449 11.5714C6.45449 11.3347 6.26262 11.1428 6.02592 11.1428C5.78923 11.1428 5.59735 11.3347 5.59735 11.5714C5.59735 11.8081 5.78923 12 6.02592 12Z" fill="#C2D7FF"/>
<path d="M10.9009 7.17859C11.6509 7.92859 12.1331 9.00002 12.1331 10.125C12.1331 12.4286 10.2581 14.25 8.00806 14.25C5.75806 14.25 3.88306 12.4286 3.88306 10.125C3.88306 9.00002 4.3652 7.92859 5.1152 7.17859" stroke="#C2D7FF" stroke-width="0.234375" stroke-miterlimit="10"/>
<path d="M8.00806 7.23218V14.25" stroke="#C2D7FF" stroke-width="0.46875" stroke-miterlimit="10"/>
<path d="M8.00808 4.33922C8.00808 4.33922 7.63308 2.41064 6.02594 2.41064" stroke="#C2D7FF" stroke-width="0.234375" stroke-miterlimit="10"/>
<path d="M8.16876 4.33922C8.16876 4.33922 8.54376 2.41064 10.1509 2.41064" stroke="#C2D7FF" stroke-width="0.234375" stroke-miterlimit="10"/>
</svg>
