<svg width="16" height="15" viewBox="0 0 16 15" fill="none" xmlns="http://www.w3.org/2000/svg">
<path d="M6.77623 8.69297L2.78717 4.75781" stroke="#C2D7FF" stroke-width="0.46875" stroke-miterlimit="10"/>
<path d="M10.7114 10.4719L12.4903 12.2508C12.7599 12.5204 12.7599 13.0055 12.4903 13.329L11.5739 14.2454C11.3044 14.5149 10.8192 14.5149 10.4958 14.2454L7.80048 11.55" stroke="#C2D7FF" stroke-width="0.46875" stroke-miterlimit="10"/>
<path d="M12.3825 6.42885L11.2505 7.56089C10.8731 7.93823 10.2263 7.93823 9.84891 7.56089C9.47157 7.18354 9.47157 6.53667 9.84891 6.15932L10.9809 5.02729C9.90282 4.48823 8.50126 4.70385 7.63876 5.56635C6.83016 6.42885 6.61454 7.56089 6.88407 8.5851L3.48798 11.9812C2.94891 12.5203 2.94891 13.3828 3.48798 13.9218C4.02704 14.4609 4.88954 14.4609 5.4286 13.9218L8.82469 10.5257C9.84891 10.8492 10.9809 10.5796 11.7895 9.82495C12.7059 8.90854 12.9216 7.56089 12.3825 6.42885Z" stroke="#C2D7FF" stroke-width="0.46875" stroke-miterlimit="10"/>
</svg>
