<svg width="60" height="60" viewBox="0 0 60 60" fill="none" xmlns="http://www.w3.org/2000/svg">
<path d="M40.25 15.5C39.25 14.75 37.5 14.75 36.75 16L19.25 38.5L10.75 28C9.99999 27 8.24999 26.75 7.24999 27.5C6.24999 28.25 5.99999 30 6.74999 31L17.25 44C17.75 44.75 18.5 45 19.25 45C20 45 20.75 44.75 21.25 44L40.75 19C41.75 18 41.5 16.5 40.25 15.5Z" fill="white"/>
<path d="M52.75 15.5C51.75 14.75 50 14.75 49.25 16L31.75 38.5L30.25 36.5L27 40.5L29.75 44C30.25 44.5 31 45 31.75 45C32.5 45 33.25 44.75 33.75 44L53.25 19C54.25 18 54 16.25 52.75 15.5Z" fill="white"/>
<path d="M20.5 32.75L23.75 28.75L23.25 28.25C22.5 27 20.75 26.75 19.75 27.5C18.75 28.25 18.5 30 19.25 31L20.5 32.75Z" fill="white"/>
</svg>
