<svg width="16" height="10" viewBox="0 0 16 10" fill="none" xmlns="http://www.w3.org/2000/svg">
<path d="M0 0.88591C0 0.704047 0.105357 0.529633 0.292893 0.401037C0.48043 0.27244 0.734784 0.200195 1 0.200195H15C15.2652 0.200195 15.5196 0.27244 15.7071 0.401037C15.8946 0.529633 16 0.704047 16 0.88591C16 1.06777 15.8946 1.24219 15.7071 1.37078C15.5196 1.49938 15.2652 1.57162 15 1.57162H1C0.734784 1.57162 0.48043 1.49938 0.292893 1.37078C0.105357 1.24219 0 1.06777 0 0.88591ZM0 5.0002C0 4.81833 0.105357 4.64392 0.292893 4.51532C0.48043 4.38673 0.734784 4.31448 1 4.31448H15C15.2652 4.31448 15.5196 4.38673 15.7071 4.51532C15.8946 4.64392 16 4.81833 16 5.0002C16 5.18206 15.8946 5.35647 15.7071 5.48507C15.5196 5.61367 15.2652 5.68591 15 5.68591H1C0.734784 5.68591 0.48043 5.61367 0.292893 5.48507C0.105357 5.35647 0 5.18206 0 5.0002ZM1 8.42877C0.734784 8.42877 0.48043 8.50101 0.292893 8.62961C0.105357 8.7582 0 8.93262 0 9.11448C0 9.29634 0.105357 9.47076 0.292893 9.59935C0.48043 9.72795 0.734784 9.8002 1 9.8002H15C15.2652 9.8002 15.5196 9.72795 15.7071 9.59935C15.8946 9.47076 16 9.29634 16 9.11448C16 8.93262 15.8946 8.7582 15.7071 8.62961C15.5196 8.50101 15.2652 8.42877 15 8.42877H1Z" fill="#ECF4FF"/>
</svg>
