<svg width="17" height="10" viewBox="0 0 17 10" fill="none" xmlns="http://www.w3.org/2000/svg">
<path d="M0.86792 0.885665C0.86792 0.703803 0.973277 0.529389 1.16081 0.400792C1.34835 0.272196 1.6027 0.199951 1.86792 0.199951H15.8679C16.1331 0.199951 16.3875 0.272196 16.575 0.400792C16.7626 0.529389 16.8679 0.703803 16.8679 0.885665C16.8679 1.06753 16.7626 1.24194 16.575 1.37054C16.3875 1.49913 16.1331 1.57138 15.8679 1.57138H1.86792C1.6027 1.57138 1.34835 1.49913 1.16081 1.37054C0.973277 1.24194 0.86792 1.06753 0.86792 0.885665ZM0.86792 4.99995C0.86792 4.81809 0.973277 4.64367 1.16081 4.51508C1.34835 4.38648 1.6027 4.31424 1.86792 4.31424H15.8679C16.1331 4.31424 16.3875 4.38648 16.575 4.51508C16.7626 4.64367 16.8679 4.81809 16.8679 4.99995C16.8679 5.18181 16.7626 5.35623 16.575 5.48482C16.3875 5.61342 16.1331 5.68567 15.8679 5.68567H1.86792C1.6027 5.68567 1.34835 5.61342 1.16081 5.48482C0.973277 5.35623 0.86792 5.18181 0.86792 4.99995ZM1.86792 8.42852C1.6027 8.42852 1.34835 8.50077 1.16081 8.62936C0.973277 8.75796 0.86792 8.93237 0.86792 9.11424C0.86792 9.2961 0.973277 9.47051 1.16081 9.59911C1.34835 9.72771 1.6027 9.79995 1.86792 9.79995H15.8679C16.1331 9.79995 16.3875 9.72771 16.575 9.59911C16.7626 9.47051 16.8679 9.2961 16.8679 9.11424C16.8679 8.93237 16.7626 8.75796 16.575 8.62936C16.3875 8.50077 16.1331 8.42852 15.8679 8.42852H1.86792Z" fill="#ECF4FF"/>
</svg>
