<svg width="272" height="253" viewBox="0 0 272 253" fill="none" xmlns="http://www.w3.org/2000/svg">
<path d="M136 252.974C210.976 252.974 271.757 244.495 271.757 234.037C271.757 223.578 210.976 215.1 136 215.1C61.0236 215.1 0.243164 223.578 0.243164 234.037C0.243164 244.495 61.0236 252.974 136 252.974Z" fill="#EBEBEB"/>
<path d="M183.57 241.961C181.99 242.476 136.75 242.057 135.052 240.947C134.397 240.535 134.074 233.933 133.912 225.957V225.707C133.912 224.061 135.904 196.479 135.904 196.479L165.479 196.67L163.273 220.841L163.104 225.656V226.148C163.104 226.148 180.35 234.051 182.1 235.477C183.85 236.903 185.158 241.447 183.57 241.961Z" fill="#D3766A"/>
<path d="M134 230.096C134.184 236.109 134.5 240.608 135.037 240.946C136.75 242.049 181.99 242.475 183.556 241.953C185.122 241.431 183.784 236.888 182.041 235.477C179.762 234.1 177.403 232.861 174.977 231.764C176.748 233.69 177.645 235.815 172.896 235.815C164.472 235.815 149.74 234.426 134 230.096Z" fill="#263238"/>
<path d="M161.112 242.086C148.835 241.917 135.941 241.527 135.044 240.946C134.5 240.608 134.184 236.109 134 230.096C136.941 230.912 139.881 231.617 142.712 232.235L161.112 242.086Z" fill="#37474F"/>
<path d="M163.082 225.244H133.898C133.898 225.244 138.499 149.15 138.242 147.82C137.919 146.114 135.993 138.418 133.434 128.354C132.633 125.207 131.766 121.826 130.869 118.326C128.435 108.858 125.723 98.5146 123.429 89.5092C119.923 76.0269 117.188 65.5439 117.188 65.5439H144.822C144.822 65.5439 148.041 75.7476 152.099 89.0167C158.716 110.593 167.537 140.277 168.405 147.496C169.816 159.148 163.082 225.244 163.082 225.244Z" fill="#D3766A"/>
<path d="M148.446 241.961C146.865 242.476 101.625 242.057 99.927 240.947C99.2728 240.535 98.9493 233.933 98.7876 225.957V225.707C98.7508 224.061 100.17 196.479 100.17 196.479L128.994 196.67L128.171 219.922V220.841L128.002 225.656V226.148C128.002 226.148 145.248 234.051 146.998 235.477C148.747 236.903 150.034 241.447 148.446 241.961Z" fill="#D3766A"/>
<path d="M98.8758 230.096C99.0596 236.109 99.3757 240.608 99.9197 240.946C101.625 242.049 146.865 242.475 148.438 241.953C150.012 241.431 148.666 236.888 146.924 235.477C144.645 234.1 142.286 232.861 139.859 231.764C141.631 233.69 142.528 235.815 137.779 235.815C129.384 235.815 114.615 234.426 98.8758 230.096Z" fill="#263238"/>
<path d="M143.91 65.5439C143.91 65.5439 143.27 78.7763 140.234 89.2225C139.992 90.0826 139.727 90.9354 139.448 91.7514C136.675 92.8721 134.01 94.2426 131.486 95.8461C131.486 95.8461 130.134 146.357 130.207 149.511C130.486 161.273 127.943 225.737 127.943 225.737L98.8611 225.869C98.8611 225.869 102.059 153.826 102.015 149.547C101.949 142.637 103.595 112.115 104.86 89.8474C105.309 81.7 106.326 73.5939 107.903 65.5881L143.91 65.5439Z" fill="#D3766A"/>
<path d="M144.822 65.544C144.822 65.544 167.28 134.94 168.603 143.395C169.36 148.021 169.88 152.683 170.162 157.362C170.162 157.362 150.636 167.183 137.345 166.845C124.054 166.507 100.464 161.236 100.464 161.236C100.464 161.236 104.139 91.5603 104.213 90.8326C104.286 90.1048 99.3242 82.2609 106.823 65.3896L144.822 65.544Z" fill="#263238"/>
<path d="M135.052 145.262C135.052 152.422 134.919 159.575 134.714 166.728H134.589L134.647 158.884C134.647 154.348 134.691 149.805 134.647 145.277C134.603 143.005 134.574 140.748 134.331 138.499L133.662 131.728L132.324 118.173L129.781 91.0389L128.553 77.483L127.517 65.4489L128.796 77.461L130.2 91.0389L132.868 118.128L134.14 131.677L134.78 138.455C134.984 140.718 135.075 142.99 135.052 145.262ZM163.244 149.379L162.928 143.086C162.872 142.032 162.727 140.984 162.494 139.955C162.296 138.918 162.068 137.896 161.84 136.867C159.965 128.678 157.797 120.569 155.665 112.446C153.533 104.323 151.254 96.273 149.004 88.1866L145.557 76.0422L142.506 65.5445H142.469L155.106 112.593C157.311 120.679 159.443 128.81 161.406 136.963C161.641 137.984 161.884 139.006 162.097 140.028C162.339 141.042 162.494 142.075 162.56 143.116L162.957 149.394L163.692 160.259H163.729L163.244 149.379ZM108.513 70.0435C108.888 68.485 109.307 66.9339 109.785 65.3975H109.748C109.241 66.9192 108.8 68.4556 108.388 70.0067C107.829 72.1045 107.389 74.2325 107.073 76.3803C106.737 78.5294 106.599 80.7047 106.661 82.8789C106.695 85.0578 107.116 87.2132 107.903 89.2451L106.631 108.954L105.418 128.722L104.279 148.489L103.544 161.898H103.654L104.595 148.489L105.889 128.729L107.124 108.961L108.286 89.1937V89.1422V89.0981C107.488 87.1057 107.05 84.9876 106.992 82.8422C106.907 80.6875 107.018 78.5297 107.322 76.395C107.602 74.2575 108 72.1371 108.513 70.0435ZM154.209 147.46C154.247 145.267 154.09 143.075 153.739 140.91C152.217 132.302 150.453 123.752 148.747 115.181L143.41 89.5686L140.675 76.7626L138.205 65.5224L143.02 89.6348L148.211 115.298C149.96 123.855 151.717 132.405 153.32 140.976C153.694 143.119 153.874 145.292 153.856 147.468L153.974 154.01C154.023 157.274 154.057 160.543 154.077 163.817H154.15C154.195 160.553 154.226 157.289 154.246 154.025C154.246 151.827 154.239 149.644 154.209 147.46ZM144.719 143.395C144.657 141.153 144.443 138.918 144.079 136.705L143.16 130.089L141.264 116.857L137.301 90.3037L135.265 77.0714L133.434 65.5445L135 77.0714L136.882 90.3478L140.72 116.879L142.66 130.148L143.609 136.764C143.978 138.953 144.206 141.163 144.292 143.38C144.432 147.843 144.498 152.312 144.572 156.782L144.733 166.162H144.822C144.822 158.583 144.858 150.996 144.719 143.395ZM125.061 137.352L124.797 130.677L124.238 117.312L123.062 90.6272L122.429 77.2919L121.812 65.4489L122.194 77.2992L122.679 90.6419L123.731 117.327L124.311 130.662L124.598 137.337L124.672 138.999V140.668L124.635 144.005L124.488 157.355L124.436 165.618H124.539L124.76 157.34L125.061 143.99L125.135 140.653V138.977L125.061 137.352ZM114.953 82.0408C114.953 80.0339 115.071 78.027 115.174 76.0128C115.372 72.4915 115.644 68.9629 115.99 65.4489C115.573 68.958 115.225 72.4743 114.946 75.9981C114.799 78.0123 114.696 80.0192 114.644 82.0408C114.557 84.0677 114.66 86.0982 114.953 88.1057L114.747 108.131L114.615 128.207L114.564 138.242C114.564 139.918 114.49 141.587 114.424 143.255L114.203 148.276L113.586 163.876H113.667L114.564 148.276L114.836 143.263C114.916 141.587 115.041 139.918 115.027 138.249L115.122 128.207L115.269 108.131L115.35 88.0469V88.0028C115.032 86.0247 114.9 84.0215 114.953 82.0188V82.0408Z" fill="#455A64"/>
<path d="M143.432 30.0662C143.888 38.2555 144.211 46.6802 143.432 54.8548C142.807 61.2137 140.131 66.4552 133.515 68.0137C127.384 69.4839 118.644 69.3516 113.453 65.2863C111.035 63.3897 110.197 60.7138 110.359 57.7145C110.579 53.5463 113.887 30.7204 114.872 23.597C115.387 19.2309 116.235 14.9104 117.408 10.6734C119.555 3.43969 124.642 2.04295 125.216 1.7783C127.941 0.582514 131.02 0.472081 133.824 1.46955C135.066 1.86394 136.21 2.51557 137.183 3.38197C138.156 4.24837 138.935 5.31007 139.47 6.49785C142.851 13.5551 142.998 22.3987 143.432 30.0662Z" fill="#263238"/>
<path d="M123.826 2.99917C118.592 5.4398 117.35 11.1591 116.078 16.2756C114.321 23.4064 112.674 30.5593 111.38 37.793C110.756 41.2701 110.212 44.7547 109.778 48.2612C109.351 51.6134 108.697 55.1935 108.925 58.5531C109.3 64.1548 114.424 66.6983 119.386 67.4996C119.435 67.5075 119.485 67.4961 119.526 67.4678C119.566 67.4394 119.595 67.3964 119.604 67.3477C119.614 67.2991 119.604 67.2486 119.577 67.207C119.55 67.1654 119.508 67.1359 119.46 67.1247C116.637 66.566 113.748 65.7794 111.645 63.6769C108.94 60.9864 109.256 57.4798 109.572 53.9806C110.116 48.026 110.998 42.1155 112.093 36.2345C113.189 30.3534 114.49 24.5165 115.887 18.6942C117.21 13.1587 118.18 5.87353 123.856 3.05798C123.914 3.05798 123.885 2.96976 123.826 2.99917Z" fill="#263238"/>
<path d="M141.881 12.4747C140.889 8.19624 138.668 4.02069 134.155 2.77832C139.977 4.6382 141.396 11.0044 142.175 16.3194C142.989 21.9163 143.596 27.5376 143.998 33.1834C144.388 38.6087 144.667 44.078 144.557 49.518C144.447 55.3991 143.381 60.8905 139.911 65.7277C139.845 65.8306 139.977 65.9482 140.058 65.8526C143.476 61.9417 144.608 56.5459 144.88 51.4955C145.125 44.81 144.929 38.1155 144.292 31.4558C143.763 25.1704 143.278 18.6425 141.881 12.4747Z" fill="#263238"/>
<path d="M131.266 38.6893C141.271 50.3338 150.379 62.6252 158.671 62.8604C166.559 63.081 179.99 40.461 181.586 33.6095C182.13 31.2498 164.538 25.6039 162.913 27.6256C159.855 31.4262 155.246 42.2253 154.025 42.2547C152.805 42.2841 143.77 35.7267 133.096 30.3529C126.627 27.0816 124.333 30.6175 131.266 38.6893Z" fill="#D3766A"/>
<path d="M180.703 35.859C181.821 34.0359 186.217 25.2143 186.893 22.487C187.569 19.7596 188.937 11.7761 186.893 11.041C184.85 10.3058 184.269 12.6215 184.269 12.6215C184.269 12.6215 184.313 9.15902 182.196 8.60767C180.078 8.05632 179.255 11.6805 179.255 11.6805C179.255 11.6805 179.042 8.12248 176.888 7.72551C174.734 7.32854 174.55 11.1071 174.55 11.1071C174.55 11.1071 174.506 7.83578 172.595 8.26216C170.301 8.7694 171.058 14.7754 170.088 17.7307C169.868 18.407 164.655 31.0218 164.655 31.0218L180.703 35.859Z" fill="#D3766A"/>
<path d="M174.609 10.7839C175.153 15.1947 174.609 17.2384 172.764 21.2081C172.755 21.2237 172.753 21.2422 172.758 21.2594C172.763 21.2766 172.774 21.2912 172.79 21.3C172.805 21.3088 172.824 21.311 172.841 21.3062C172.858 21.3013 172.873 21.2899 172.882 21.2743C175.087 17.5545 176.087 15.1065 174.822 10.7472C174.756 10.534 174.58 10.5708 174.609 10.7839Z" fill="#263238"/>
<path d="M179.24 11.3352C179.41 15.9739 178.858 18.1866 177.211 22.4871C177.211 22.5459 177.285 22.59 177.314 22.5312C179.285 18.4439 180.255 15.9812 179.476 11.3572C179.439 11.1514 179.233 11.122 179.24 11.3352Z" fill="#263238"/>
<path d="M184.188 12.8419C184.026 17.3482 183.526 19.7889 181.387 23.7586C181.375 23.7771 181.371 23.7995 181.376 23.8209C181.381 23.8422 181.394 23.8608 181.413 23.8725C181.431 23.8842 181.454 23.8881 181.475 23.8832C181.496 23.8784 181.515 23.8653 181.527 23.8468C184.1 20.0094 184.747 16.9659 184.32 12.8566C184.291 12.5772 184.195 12.5552 184.188 12.8419Z" fill="#263238"/>
<path d="M162.259 32.8677C162.259 32.8677 161.083 27.413 161.097 24.8988C161.112 22.3847 164.604 13.0412 166.662 13.6807C169.324 14.5041 168.368 20.2969 167.537 23.0757C167.537 23.0757 173.69 24.9797 173.903 29.2802C174.117 33.5807 162.259 32.8677 162.259 32.8677Z" fill="#D3766A"/>
<path d="M167.324 14.1437C169.206 16.6505 167.868 20.2233 167.258 22.9653C167.247 23.0054 167.246 23.0475 167.255 23.0881C167.264 23.1286 167.282 23.1664 167.309 23.1982C167.336 23.23 167.37 23.2548 167.408 23.2706C167.447 23.2864 167.488 23.2926 167.53 23.2888C170.059 24.2592 173.345 26.3616 174.028 29.1698C174.033 29.1828 174.041 29.1941 174.052 29.202C174.064 29.21 174.077 29.2143 174.091 29.2143C174.105 29.2143 174.118 29.21 174.129 29.202C174.14 29.1941 174.149 29.1828 174.153 29.1698C173.823 26.0896 170.772 23.7593 167.934 22.8771C168.603 20.0616 169.787 16.4227 167.346 14.1658C167.331 14.1143 167.309 14.129 167.324 14.1437Z" fill="#263238"/>
<path d="M160.068 30.758L178.241 42.8803C178.241 42.8803 166.802 63.7287 159.127 63.589C151.452 63.4493 136.221 46.9309 128.965 35.5217C123.944 27.6116 129.053 27.891 135.052 30.9565C141.05 34.022 153.687 41.4689 154.224 41.1822C154.761 40.8955 160.068 30.758 160.068 30.758Z" fill="#407BFF"/>
<path opacity="0.1" d="M128.957 35.5291C136.213 46.9604 151.482 63.4053 159.142 63.5523C162.524 63.6111 166.655 59.5752 170.169 55.0468C161.031 49.1658 140.08 35.235 129.281 28.9864C126.679 28.7658 125.76 30.4787 128.957 35.5291Z" fill="#000102"/>
<path d="M174.095 46.5109C171.492 44.8642 161.068 37.6893 158.921 36.0353C158.774 35.9177 158.811 35.7927 158.98 35.8956C166.912 40.6446 171.683 44.6584 174.161 46.408C174.227 46.4521 174.161 46.555 174.095 46.5109Z" fill="#263238"/>
<path d="M106.029 67.1912L145.542 67.8382L142.447 56.0099C143.477 54.5281 144.169 52.839 144.477 51.061C144.784 49.2831 144.698 47.4594 144.226 45.718C143.278 42.2335 138.779 37.0141 136.022 33.6986C129.31 25.6122 123.473 29.2878 121.613 31.3536C114.505 39.2636 106.029 67.1912 106.029 67.1912Z" fill="white"/>
<path d="M124.664 29.0664C124.664 29.0664 128.538 39.3583 130.053 41.7033C131.567 44.0484 136.022 48.2607 136.022 48.2607C136.022 48.2607 136.537 42.1885 136.022 38.704C135.507 35.2195 132.56 30.2867 132.56 30.2867C133.35 30.7 134.058 31.2558 134.647 31.9261C137.992 35.3371 143.807 42.0415 144.689 46.6287C145.017 48.2174 145.026 49.8553 144.717 51.4476C144.408 53.04 143.786 54.5554 142.888 55.9061L147.343 70.1235L141.102 72.0569L138.029 68.3813L134.861 72.4171L103.25 68.0063L108.499 58.0968C108.499 58.0968 116.026 38.557 119.004 34.2785C122.429 29.456 124.664 29.0664 124.664 29.0664Z" fill="#407BFF"/>
<path d="M128.031 57.531C129.375 57.1379 130.739 56.8213 132.118 56.5827C132.81 56.4651 133.501 56.3916 134.199 56.3328L135.199 56.2666C135.566 56.2666 135.934 56.2666 136.309 56.2666C136.346 56.2666 136.353 56.3181 136.309 56.3254C135.963 56.3622 135.625 56.4504 135.28 56.5018L134.243 56.6636L132.177 56.987C130.795 57.1929 129.421 57.4061 128.046 57.656C127.98 57.656 127.965 57.5531 128.031 57.531Z" fill="#263238"/>
<path d="M121.797 38.7853C118.857 43.1961 104.889 59.6778 104.47 61.3833C104.242 62.3389 108.014 65.6029 107.984 66.2866C107.844 69.058 100.236 90.9576 97.7658 89.1786C94.5165 86.8409 82.5926 67.426 84.1732 59.6998C85.7537 51.9736 117.401 31.6913 122.29 29.8902C127.178 28.0891 124.708 34.4333 121.797 38.7853Z" fill="#407BFF"/>
<path d="M117.379 45.6738C116.041 47.4455 114.644 49.1584 113.233 50.8712C111.821 52.5841 110.292 54.1646 108.822 55.8187C108.087 56.6346 107.352 57.458 106.661 58.3107C105.95 59.1149 105.333 59.9979 104.823 60.9425C104.773 61.0416 104.741 61.1485 104.727 61.2586C104.728 61.3612 104.745 61.463 104.779 61.56C104.865 61.8131 104.97 62.0589 105.095 62.2952C105.363 62.7696 105.658 63.2286 105.977 63.6699C106.587 64.5814 107.286 65.4415 107.977 66.309C107.168 65.5463 106.402 64.7389 105.683 63.8904C105.33 63.4555 105.001 63.0015 104.698 62.5304C104.543 62.2817 104.408 62.0211 104.294 61.7512C104.228 61.5896 104.191 61.4181 104.183 61.2439C104.199 61.078 104.236 60.9149 104.294 60.7587C104.77 59.7257 105.383 58.7614 106.117 57.8917C106.808 57.0169 107.536 56.1789 108.271 55.3482C109.741 53.6868 111.358 52.1724 112.814 50.511C114.269 48.8496 115.813 47.247 117.379 45.6738Z" fill="#263238"/>
<path d="M116.887 48.0186C116.493 48.3607 116.059 48.6522 115.593 48.886C115.129 49.1296 114.634 49.3101 114.122 49.4227C114.914 48.7427 115.857 48.2614 116.872 48.0186H116.887Z" fill="#263238"/>
<path d="M95.6045 81.3719C96.8248 78.5416 102.221 67.1323 103.588 64.7505C103.676 64.5814 103.809 64.6035 103.735 64.7505C100.273 73.3957 97.038 78.7033 95.7147 81.416C95.678 81.4821 95.5677 81.4821 95.6045 81.3719Z" fill="#263238"/>
<path d="M106.668 95.1849C108.962 93.7146 105.933 91.8474 105.933 91.8474C105.933 91.8474 110.976 93.472 112.755 91.0314C114.534 88.5907 110.689 86.5618 110.425 86.4074C110.689 86.4882 115.365 87.8776 116.901 85.2238C118.489 82.4818 114.343 81.0042 114.078 80.9086C114.35 80.9086 118.019 80.8424 118.732 78.5782C119.952 74.682 109.44 73.9837 107.227 71.5283C107.227 71.5283 108.366 66.3824 108.455 66.2354C108.455 66.2354 107.249 68.2276 105.396 68.7054C103.11 69.2935 101.052 69.617 100.103 70.6903C99.6613 71.157 99.3817 71.754 99.3062 72.3924C99.2307 73.0309 99.3634 73.6766 99.6845 74.2336C99.6845 74.2336 96.8174 73.8366 95.5383 75.8656C94.8914 76.9168 95.9867 78.887 95.9867 78.887C95.9867 78.887 93.6711 78.6664 92.6566 80.541C91.8332 82.0113 93.0609 83.7903 93.0609 83.7903C93.0609 83.7903 90.7453 84.599 90.3997 86.4C89.6867 90.0389 101.75 98.3459 106.668 95.1849Z" fill="#D3766A"/>
<path d="M93.1859 84.0917C93.1781 84.0849 93.1679 84.0814 93.1576 84.0821C93.1472 84.0828 93.1376 84.0876 93.1308 84.0954C93.1239 84.1032 93.1205 84.1134 93.1212 84.1237C93.1219 84.134 93.1266 84.1437 93.1344 84.1505C96.552 88.0071 101.062 90.7326 106.065 91.965C106.227 92.0017 106.352 91.7591 106.183 91.6856C101.505 89.7992 97.1263 87.241 93.1859 84.0917Z" fill="#263238"/>
<path d="M95.8838 78.8721C95.8397 78.8721 95.7809 78.9088 95.8176 78.9529C99.2434 82.7462 104.698 86.0396 110.454 86.6057C110.653 86.6057 110.851 86.4439 110.623 86.4072C106.823 85.7382 99.5374 81.8788 95.8838 78.8721Z" fill="#263238"/>
<path d="M114.468 80.8129C108.969 80.0778 104.264 77.6078 99.7653 74.4026C99.7065 74.3585 99.6551 74.4467 99.6992 74.4982C101.456 76.6595 104.522 78.4091 107.05 79.5632C109.344 80.6941 111.894 81.2011 114.446 81.0335C114.541 80.9967 114.586 80.8276 114.468 80.8129Z" fill="#263238"/>
<path d="M92.8918 83.768C92.0979 82.7315 91.576 81.4303 92.1567 80.1585C92.4272 79.5817 92.8972 79.1221 93.48 78.8647C94.179 78.6477 94.9192 78.5973 95.6412 78.7177C95.2458 78.1436 95.034 77.463 95.034 76.7659C95.034 76.0688 95.2458 75.3882 95.6412 74.8141C96.0812 74.3322 96.6829 74.0287 97.332 73.9614C98.0851 73.9127 98.8412 73.9622 99.5816 74.1084C99.2803 73.7383 99.0696 73.3031 98.9662 72.8372C98.8629 72.3714 98.8697 71.8879 98.9861 71.4252C99.1343 70.9184 99.4009 70.4541 99.7639 70.0706C100.127 69.6872 100.576 69.3955 101.074 69.2198C102.234 68.8352 103.436 68.5884 104.654 68.4846C105.28 68.4008 105.894 68.2454 106.484 68.0215C107.119 67.7472 107.657 67.2888 108.028 66.7056C108.102 66.61 108.087 66.7056 108.028 66.8012C107.779 67.1955 107.469 67.5479 107.109 67.8451C106.73 68.1585 106.31 68.4182 105.86 68.6169C104.747 69.0058 103.607 69.3105 102.449 69.5285C101.43 69.7692 100.52 70.3405 99.8609 71.1532C99.5682 71.5819 99.3984 72.0825 99.3699 72.6009C99.3414 73.1192 99.4553 73.6354 99.6992 74.0937C99.7101 74.1052 99.7165 74.1203 99.7172 74.1361C99.7179 74.152 99.7129 74.1675 99.7031 74.18C99.6933 74.1925 99.6794 74.201 99.6638 74.2041C99.6482 74.2071 99.6321 74.2045 99.6183 74.1966C98.9419 74.1765 98.2656 74.2382 97.604 74.3804C97.0558 74.5106 96.5607 74.8056 96.1852 75.2258C95.8291 75.7518 95.6179 76.3624 95.5727 76.996C95.5276 77.6297 95.6501 78.264 95.9279 78.8353C95.1962 78.8782 94.4775 79.0473 93.8034 79.3352C93.3668 79.5851 93.0139 79.9585 92.7889 80.4085C92.5202 80.9251 92.4012 81.5065 92.4454 82.0871C92.4896 82.6677 92.6951 83.2245 93.0389 83.6945C93.0423 83.709 93.0423 83.7241 93.0389 83.7386C93.0389 83.7386 92.3037 84.0253 92.267 84.0253C92.2302 84.0253 92.267 84.0253 92.267 83.9886C92.4698 83.9003 92.6786 83.8266 92.8918 83.768Z" fill="#263238"/>
<path d="M125.48 30.3162C125.671 31.0072 129.229 35.4621 132.442 35.146C133.486 35.0505 133.221 29.3238 133.221 29.3238L133.295 28.8901L134.368 22.9061L127.178 18.7305L126.149 18.1865C126.149 18.1865 125.965 19.8406 125.752 21.9063C125.752 22.0019 125.752 22.0974 125.752 22.2003C125.752 22.3033 125.752 22.4282 125.715 22.5385C125.715 22.8473 125.642 23.1634 125.613 23.4795C125.583 23.7956 125.568 23.95 125.554 24.2146C125.539 24.4793 125.554 24.7145 125.502 24.9497C125.37 26.7359 125.363 28.529 125.48 30.3162Z" fill="#D3766A"/>
<path d="M125.782 21.9357C126.453 23.5748 127.472 25.0483 128.77 26.2542C130.067 27.4601 131.611 28.3695 133.295 28.9195L134.368 22.9355L127.178 18.7305L126.149 18.1865C126.149 18.1865 125.995 19.8406 125.782 21.9357Z" fill="#263238"/>
<path d="M142.403 13.2242C144.66 23.6558 138.669 26.1846 136.412 26.6698C134.375 27.1109 127.362 28.3459 124.039 18.2011C120.717 8.05627 124.855 3.70429 129.472 2.45457C134.089 1.20484 140.146 2.82213 142.403 13.2242Z" fill="#D3766A"/>
<path d="M139.337 12.1953C139.092 12.1931 138.846 12.1759 138.602 12.1439C138.343 12.1632 138.084 12.096 137.867 11.9527C137.808 11.8943 137.77 11.8182 137.758 11.7359C137.746 11.6537 137.761 11.5698 137.801 11.497C137.903 11.3621 138.039 11.2579 138.196 11.1956C138.353 11.1334 138.524 11.1155 138.691 11.1441C139.033 11.1466 139.363 11.2747 139.617 11.5043C139.673 11.5604 139.712 11.6319 139.728 11.7099C139.744 11.7879 139.736 11.8688 139.707 11.9426C139.677 12.0164 139.626 12.0797 139.56 12.1247C139.495 12.1696 139.417 12.1942 139.337 12.1953Z" fill="#263238"/>
<path d="M132.192 14.4008C132.427 14.3271 132.657 14.2413 132.883 14.1435C133.14 14.0897 133.373 13.9528 133.545 13.7538C133.585 13.6799 133.601 13.5948 133.589 13.5112C133.577 13.4277 133.538 13.3503 133.478 13.2907C133.341 13.1935 133.18 13.1348 133.012 13.1206C132.844 13.1064 132.675 13.1372 132.523 13.2099C132.196 13.3085 131.916 13.5228 131.736 13.8127C131.701 13.8822 131.686 13.9603 131.694 14.0378C131.701 14.1154 131.73 14.1893 131.778 14.2509C131.826 14.3125 131.89 14.3593 131.963 14.3858C132.037 14.4124 132.116 14.4175 132.192 14.4008Z" fill="#263238"/>
<path d="M134.008 15.6729C134.008 15.6729 133.956 15.717 133.964 15.7464C134.103 16.4815 134.147 17.2975 133.545 17.643C133.545 17.643 133.545 17.6945 133.545 17.6871C134.324 17.4372 134.258 16.3271 134.008 15.6729Z" fill="#263238"/>
<path d="M133.243 15.0327C132.074 15.1356 132.376 17.466 133.456 17.3631C134.537 17.2602 134.221 14.9445 133.243 15.0327Z" fill="#263238"/>
<path d="M132.802 15.2099C132.611 15.3716 132.442 15.6289 132.207 15.6877C131.971 15.7465 131.677 15.5333 131.472 15.3202C131.472 15.3202 131.427 15.3202 131.435 15.3569C131.486 15.798 131.714 16.2391 132.17 16.2391C132.626 16.2391 132.905 15.8127 132.905 15.3496C132.964 15.2613 132.876 15.1511 132.802 15.2099Z" fill="#263238"/>
<path d="M138.205 14.666C138.205 14.666 138.264 14.666 138.272 14.7175C138.367 15.4526 138.602 16.2465 139.293 16.3715C139.293 16.3715 139.293 16.3715 139.293 16.4156C138.485 16.4377 138.205 15.3644 138.205 14.666Z" fill="#263238"/>
<path d="M138.713 13.805C139.852 13.5183 140.337 15.8119 139.286 16.0766C138.235 16.3412 137.764 14.0403 138.713 13.805Z" fill="#263238"/>
<path d="M139.227 13.85C139.433 13.9309 139.661 14.1146 139.881 14.0779C140.102 14.0411 140.264 13.7544 140.374 13.4824C140.374 13.4824 140.411 13.4824 140.418 13.4824C140.521 13.9161 140.477 14.4013 140.073 14.5778C139.668 14.7542 139.337 14.416 139.146 14.0044C139.11 13.9603 139.139 13.85 139.227 13.85Z" fill="#263238"/>
<path d="M135.324 21.5536C135.507 21.708 135.699 21.9286 135.963 21.9286C136.223 21.8975 136.473 21.8123 136.698 21.6786C136.607 21.8303 136.475 21.9542 136.319 22.0371C136.162 22.12 135.986 22.1587 135.809 22.1491C135.657 22.127 135.515 22.0576 135.404 21.9508C135.293 21.844 135.219 21.705 135.191 21.5536C135.265 21.5463 135.265 21.5316 135.324 21.5536Z" fill="#263238"/>
<path d="M137.97 18.5245C137.97 18.5245 138.264 19.5831 138.338 20.0903C138.338 20.1344 138.227 20.1785 138.051 20.2079C137.626 20.3478 137.171 20.3683 136.736 20.2672C136.3 20.1661 135.901 19.9472 135.581 19.6345C135.537 19.5904 135.581 19.5316 135.647 19.5536C136.355 19.9042 137.156 20.0177 137.933 19.8771C137.933 19.7301 137.367 18.0834 137.441 18.0687C137.841 18.0506 138.241 18.0852 138.632 18.1716C138.073 15.9662 137.161 13.849 136.64 11.6363C136.633 11.6197 136.633 11.6011 136.64 11.5846C136.647 11.568 136.66 11.5549 136.676 11.5481C136.693 11.5412 136.711 11.5413 136.728 11.5482C136.745 11.5551 136.758 11.5682 136.765 11.5848C137.809 13.8137 138.629 16.1408 139.213 18.5318C139.279 18.8185 138.205 18.5833 137.97 18.5245Z" fill="#263238"/>
<path d="M137.977 20.0318C137.756 20.486 137.419 20.8739 137 21.1566C136.768 21.3063 136.496 21.3807 136.221 21.3698C135.618 21.3698 135.485 20.8111 135.485 20.3406C135.494 20.0916 135.533 19.8446 135.603 19.6055C136.328 19.9987 137.161 20.1482 137.977 20.0318Z" fill="#263238"/>
<path d="M137 21.157C136.768 21.3067 136.496 21.3811 136.221 21.3702C135.618 21.3702 135.485 20.8115 135.485 20.341C135.793 20.2845 136.111 20.3345 136.386 20.4829C136.661 20.6312 136.878 20.869 137 21.157Z" fill="#FF9ABB"/>
<path d="M124.113 18.7747C124.772 18.3943 125.322 17.8497 125.708 17.1941C126.095 16.5384 126.305 15.7939 126.318 15.0329C128.124 14.0908 129.646 12.6851 130.729 10.9603C130.678 11.1808 130.259 12.8054 129.994 13.6288C136.691 11.9233 138.455 6.60091 138.455 6.60091C139.826 7.70958 140.932 9.11123 141.69 10.703C141.69 10.703 141.469 6.54211 139.146 3.89563C138.391 2.97183 137.403 2.26617 136.284 1.85138C135.165 1.4366 133.955 1.32768 132.78 1.53585C131.092 1.25441 129.359 1.42979 127.761 2.04379C126.164 2.65779 124.759 3.68806 123.694 5.02773C119.599 10.1001 124.113 18.7747 124.113 18.7747Z" fill="#263238"/>
<path d="M135.155 12.173C134.102 12.8289 132.957 13.3244 131.758 13.6432C133.63 12.999 135.284 11.8458 136.537 10.3131C137.067 9.65767 137.514 8.93912 137.867 8.17385C138.286 7.34941 138.536 6.44967 138.602 5.52737C138.602 5.46121 138.705 5.46856 138.705 5.52737C138.737 6.44292 138.615 7.35731 138.345 8.23267C138.037 9.08762 137.576 9.87963 136.985 10.5704C136.453 11.1814 135.837 11.7136 135.155 12.1509" fill="#263238"/>
<path d="M125.973 17.6867C125.973 17.6867 123.245 14.68 121.849 15.6944C120.452 16.7089 122.804 21.2815 124.642 21.7078C124.875 21.7804 125.12 21.805 125.362 21.7801C125.604 21.7553 125.839 21.6815 126.052 21.5633C126.265 21.4451 126.452 21.2849 126.601 21.0924C126.751 20.8999 126.86 20.6791 126.921 20.4434L125.973 17.6867Z" fill="#D3766A"/>
<path d="M122.554 16.9885C122.554 16.9885 122.554 16.9885 122.554 17.0326C123.156 17.2447 123.706 17.5797 124.171 18.0164C124.635 18.4531 125.004 18.9818 125.252 19.5688C125.164 19.4548 125.053 19.361 124.925 19.2941C124.798 19.2271 124.658 19.1884 124.514 19.1807C124.37 19.1731 124.226 19.1965 124.092 19.2496C123.958 19.3026 123.838 19.3839 123.738 19.488C123.738 19.488 123.738 19.5615 123.782 19.5468C123.99 19.4505 124.223 19.4214 124.448 19.4636C124.674 19.5057 124.88 19.617 125.039 19.782C125.319 20.0537 125.565 20.3571 125.774 20.6862C125.848 20.7892 126.039 20.6862 125.98 20.5833C125.767 18.9954 124.238 16.9297 122.554 16.9885Z" fill="#263238"/>
<path d="M124.495 29.2871C124.098 32.0292 123.65 34.7565 123.187 37.4912L123.047 37.2633C124.657 37.6823 126.252 38.1454 127.862 38.5865L128.127 38.66L128.009 38.9173C127.531 39.9759 127.061 41.0345 126.539 42.0784L126.473 41.7844C128.171 43.2546 129.891 44.7249 131.567 46.1951C133.243 47.6654 134.934 49.1871 136.588 50.7236C134.809 49.3342 133.067 47.9154 131.332 46.4745C129.597 45.0336 127.877 43.5781 126.149 42.1372L126.01 42.0122L126.083 41.8432C126.554 40.7846 127.053 39.7333 127.553 38.6894L127.7 39.0203C126.105 38.5498 124.502 38.1013 122.915 37.6162L122.738 37.5573V37.3883C123.334 34.7197 123.885 32.0071 124.495 29.2871Z" fill="#263238"/>
<path d="M133.398 30.9189C134.287 31.8452 134.912 32.5068 135.779 33.4625C136.647 34.4182 137.529 35.3518 138.374 36.3222L138.544 36.5206L138.316 36.6603L136.647 37.6969L136.698 37.3219C137.382 38.013 138.08 38.6966 138.749 39.395L138.838 39.4906V39.6156C138.492 41.4754 138.176 43.3427 137.801 45.2026C137.426 47.0624 137.066 48.9223 136.64 50.7675C136.867 48.8856 137.147 47.011 137.433 45.1364C137.72 43.2618 138.044 41.4019 138.345 39.5273L138.419 39.7479C137.72 39.0642 137.051 38.3585 136.375 37.6601L136.162 37.4469L136.419 37.2925L138.11 36.2781L138.051 36.6162C137.213 35.6458 136.404 34.6461 135.581 33.6757C134.758 32.7053 134.192 31.9334 133.398 30.9189Z" fill="#263238"/>
<path d="M136.617 50.7676C136.853 51.6718 137.095 52.576 137.309 53.4876C137.522 54.3991 137.735 55.3033 137.933 56.2149C138 58.2512 138.022 60.2802 138.051 62.3091C138.08 64.3381 138.051 66.3744 138.051 68.4107C137.933 66.3818 137.845 64.3455 137.779 62.3165C137.713 60.2875 137.661 58.2586 137.639 56.2223C137.448 55.3107 137.264 54.3918 137.103 53.4729C136.941 52.5539 136.735 51.6938 136.617 50.7676Z" fill="#263238"/>
<path d="M136.081 53.1939C136.085 53.3192 136.053 53.443 135.988 53.5507C135.924 53.6583 135.83 53.7452 135.718 53.8009C135.606 53.8567 135.48 53.879 135.355 53.8652C135.23 53.8514 135.112 53.8021 135.015 53.7232C134.935 53.6598 134.871 53.5793 134.827 53.4877C134.783 53.3961 134.76 53.2956 134.76 53.1939C134.76 53.0921 134.783 52.9917 134.827 52.9C134.871 52.8084 134.935 52.7279 135.015 52.6646C135.112 52.5856 135.23 52.5363 135.355 52.5225C135.48 52.5087 135.606 52.5311 135.718 52.5868C135.83 52.6426 135.924 52.7295 135.988 52.8371C136.053 52.9447 136.085 53.0685 136.081 53.1939ZM136.081 53.1939C136.079 53.126 136.061 53.0595 136.029 52.9996C135.997 52.9397 135.952 52.8879 135.897 52.8484C135.846 52.8126 135.788 52.7888 135.727 52.7786C135.666 52.7684 135.604 52.7722 135.544 52.7895C135.463 52.8211 135.393 52.8767 135.345 52.949C135.296 53.0213 135.271 53.1068 135.272 53.1939C135.267 53.2817 135.291 53.3687 135.34 53.4416C135.39 53.5146 135.461 53.5695 135.544 53.5982C135.603 53.6151 135.665 53.6193 135.726 53.6104C135.787 53.6015 135.845 53.5798 135.897 53.5467C135.952 53.5049 135.996 53.4516 136.028 53.3907C136.06 53.3297 136.078 53.2625 136.081 53.1939Z" fill="#263238"/>
<path d="M136.875 59.0747C136.876 59.2293 136.823 59.3794 136.725 59.4989C136.627 59.6184 136.49 59.6998 136.338 59.729C136.246 59.7478 136.151 59.7464 136.06 59.7248C135.968 59.7033 135.883 59.662 135.809 59.604C135.729 59.5407 135.665 59.4602 135.621 59.3686C135.576 59.2769 135.554 59.1765 135.554 59.0747C135.554 58.973 135.576 58.8726 135.621 58.7809C135.665 58.6893 135.729 58.6088 135.809 58.5454C135.906 58.4665 136.024 58.4172 136.149 58.4034C136.274 58.3896 136.4 58.4119 136.512 58.4677C136.624 58.5234 136.718 58.6103 136.782 58.7179C136.847 58.8256 136.879 58.9494 136.875 59.0747ZM136.875 59.0747C136.872 59.0061 136.854 58.9389 136.822 58.8779C136.79 58.817 136.746 58.7637 136.691 58.7219C136.639 58.6888 136.581 58.6671 136.52 58.6582C136.459 58.6493 136.397 58.6535 136.338 58.6704C136.257 58.7021 136.187 58.7576 136.137 58.8297C136.088 58.9019 136.061 58.9873 136.061 59.0747C136.061 59.1622 136.088 59.2476 136.137 59.3197C136.187 59.3919 136.257 59.4474 136.338 59.4791C136.397 59.496 136.459 59.5001 136.52 59.4913C136.581 59.4824 136.639 59.4607 136.691 59.4276C136.746 59.3858 136.79 59.3325 136.822 59.2715C136.854 59.2106 136.872 59.1434 136.875 59.0747Z" fill="#263238"/>
<path d="M137.147 64.4557C137.147 64.6098 137.095 64.7594 136.999 64.8797C136.902 65 136.768 65.0838 136.617 65.1173C136.524 65.1334 136.428 65.1299 136.335 65.1072C136.243 65.0844 136.156 65.0428 136.081 64.985C136.002 64.9209 135.939 64.8401 135.896 64.7486C135.852 64.6571 135.83 64.557 135.83 64.4557C135.83 64.3544 135.852 64.2544 135.896 64.1628C135.939 64.0713 136.002 63.9905 136.081 63.9264C136.156 63.8686 136.243 63.827 136.335 63.8043C136.428 63.7815 136.524 63.778 136.617 63.7941C136.768 63.8276 136.902 63.9114 136.999 64.0318C137.095 64.1521 137.147 64.3016 137.147 64.4557ZM137.147 64.4557C137.147 64.3875 137.13 64.3204 137.098 64.2602C137.066 64.2 137.019 64.1485 136.963 64.1102C136.914 64.0742 136.857 64.0507 136.797 64.0418C136.736 64.0328 136.675 64.0386 136.617 64.0588C136.535 64.0877 136.465 64.1415 136.414 64.2127C136.364 64.2838 136.338 64.3687 136.338 64.4557C136.335 64.5442 136.361 64.6313 136.411 64.7041C136.461 64.777 136.534 64.8316 136.617 64.86C136.675 64.8768 136.736 64.8809 136.796 64.872C136.855 64.8632 136.912 64.8415 136.963 64.8086C137.018 64.7675 137.064 64.7144 137.095 64.6533C137.127 64.5921 137.145 64.5246 137.147 64.4557Z" fill="#263238"/>
</svg>
